# This file uses centimeters as units for non-parametric coordinates.

mtllib AssaultFrigate.mtl
g default
v -0.069254 -0.156702 0.711477
v 0.069254 -0.156702 0.711477
v -0.069254 0.156702 0.749497
v 0.069254 0.156702 0.749497
v -0.118410 0.267929 0.188508
v 0.118410 0.267929 0.188508
v -0.118410 -0.267929 0.188508
v 0.118410 -0.267929 0.188508
v -0.112320 0.000000 0.749497
v 0.112320 0.000000 0.749497
v 0.192045 0.000000 0.188508
v -0.192045 0.000000 0.188508
v 0.000000 -0.156702 0.711477
v 0.000000 -0.267929 0.188508
v 0.000000 0.267929 0.188508
v 0.000000 0.156702 0.749497
v 0.000000 0.000000 0.749497
v 0.000000 0.267929 -0.273427
v 0.118410 0.267929 -0.273427
v 0.192045 0.000000 -0.273427
v 0.000000 -0.267929 -0.273427
v 0.118410 -0.267929 -0.273427
v -0.192045 0.000000 -0.273427
v -0.118410 -0.267929 -0.273427
v -0.118410 0.267929 -0.273427
v 0.000000 0.193064 -0.352713
v 0.085324 0.193064 -0.352713
v 0.138383 0.000000 -0.352713
v 0.000000 -0.193064 -0.352713
v 0.085324 -0.193064 -0.352713
v -0.138383 0.000000 -0.352713
v -0.085324 -0.193064 -0.352713
v -0.085324 0.193064 -0.352713
v 0.000000 0.193064 -0.412538
v 0.085324 0.193064 -0.412538
v 0.138383 0.000000 -0.412538
v 0.000000 -0.193064 -0.412538
v 0.085324 -0.193064 -0.412538
v -0.138383 0.000000 -0.412538
v -0.085324 -0.193064 -0.412538
v -0.085324 0.193064 -0.412538
v 0.000000 0.231586 -0.491495
v 0.102348 0.231586 -0.491495
v 0.165995 0.000000 -0.491495
v 0.000000 -0.231586 -0.491495
v 0.102348 -0.231586 -0.491495
v -0.165995 0.000000 -0.491495
v -0.102348 -0.231586 -0.491495
v -0.102348 0.231586 -0.491495
v -0.000000 0.231586 -0.749497
v 0.102348 0.231586 -0.749497
v 0.165995 0.000000 -0.749497
v 0.000000 -0.231586 -0.749497
v 0.102348 -0.231586 -0.749497
v -0.165995 0.000000 -0.749497
v -0.102348 -0.231586 -0.749497
v -0.102348 0.231586 -0.749497
v 0.000000 0.138535 0.822507
v 0.000000 0.018168 0.822507
v 0.086276 0.018168 0.822507
v 0.053196 0.138535 0.822507
v -0.086276 0.018168 0.822507
v -0.053196 0.138535 0.822507
v -0.000000 -0.000000 -0.822507
v -0.000000 0.231586 -0.822507
v 0.102348 0.231586 -0.822507
v 0.165995 -0.000000 -0.822507
v 0.000000 -0.231586 -0.822507
v 0.102348 -0.231586 -0.822507
v -0.165995 -0.000000 -0.822507
v -0.102348 -0.231586 -0.822507
v -0.102348 0.231586 -0.822507
vt 0.375000 0.000000
vt 0.625000 0.000000
vt 0.375000 0.250000
vt 0.625000 0.250000
vt 0.375000 0.500000
vt 0.625000 0.500000
vt 0.375000 0.750000
vt 0.625000 0.750000
vt 0.375000 1.000000
vt 0.625000 1.000000
vt 0.875000 0.000000
vt 0.875000 0.250000
vt 0.125000 0.000000
vt 0.125000 0.250000
vt 0.375000 0.125000
vt 0.625000 0.125000
vt 0.625000 0.625000
vt 0.875000 0.125000
vt 0.125000 0.125000
vt 0.375000 0.625000
vt 0.500000 0.000000
vt 0.500000 1.000000
vt 0.500000 0.750000
vt 0.500000 0.625000
vt 0.500000 0.500000
vt 0.500000 0.250000
vt 0.500000 0.125000
vt 0.500000 0.500000
vt 0.625000 0.500000
vt 0.625000 0.625000
vt 0.625000 0.750000
vt 0.500000 0.750000
vt 0.375000 0.750000
vt 0.375000 0.625000
vt 0.375000 0.500000
vt 0.500000 0.500000
vt 0.625000 0.500000
vt 0.625000 0.625000
vt 0.625000 0.750000
vt 0.500000 0.750000
vt 0.375000 0.750000
vt 0.375000 0.625000
vt 0.375000 0.500000
vt 0.500000 0.500000
vt 0.625000 0.500000
vt 0.625000 0.625000
vt 0.625000 0.750000
vt 0.500000 0.750000
vt 0.375000 0.750000
vt 0.375000 0.625000
vt 0.375000 0.500000
vt 0.500000 0.500000
vt 0.625000 0.500000
vt 0.625000 0.625000
vt 0.625000 0.750000
vt 0.500000 0.750000
vt 0.375000 0.750000
vt 0.375000 0.625000
vt 0.375000 0.500000
vt 0.500000 0.500000
vt 0.625000 0.500000
vt 0.625000 0.625000
vt 0.625000 0.750000
vt 0.500000 0.750000
vt 0.375000 0.750000
vt 0.375000 0.625000
vt 0.375000 0.500000
vt 0.500000 0.125000
vt 0.625000 0.125000
vt 0.625000 0.250000
vt 0.500000 0.250000
vt 0.500000 0.500000
vt 0.625000 0.500000
vt 0.625000 0.625000
vt 0.625000 0.750000
vt 0.500000 0.750000
vt 0.375000 0.750000
vt 0.375000 0.625000
vt 0.375000 0.500000
vt 0.375000 0.125000
vt 0.375000 0.250000
vt 0.500000 0.500000
vt 0.625000 0.500000
vt 0.625000 0.500000
vt 0.500000 0.500000
vt 0.625000 0.500000
vt 0.625000 0.625000
vt 0.625000 0.625000
vt 0.625000 0.500000
vt 0.625000 0.625000
vt 0.625000 0.750000
vt 0.625000 0.750000
vt 0.625000 0.625000
vt 0.625000 0.750000
vt 0.500000 0.750000
vt 0.500000 0.750000
vt 0.625000 0.750000
vt 0.500000 0.750000
vt 0.375000 0.750000
vt 0.375000 0.750000
vt 0.500000 0.750000
vt 0.375000 0.750000
vt 0.375000 0.625000
vt 0.375000 0.625000
vt 0.375000 0.750000
vt 0.375000 0.500000
vt 0.500000 0.500000
vt 0.500000 0.500000
vt 0.375000 0.500000
vt 0.375000 0.625000
vt 0.375000 0.500000
vt 0.375000 0.500000
vt 0.375000 0.625000
vt 0.375000 0.125000
vt 0.500000 0.125000
vt 0.500000 0.125000
vt 0.375000 0.125000
vt 0.500000 0.250000
vt 0.375000 0.250000
vt 0.375000 0.250000
vt 0.500000 0.250000
vt 0.375000 0.250000
vt 0.375000 0.125000
vt 0.375000 0.125000
vt 0.375000 0.250000
vn 0.000000 0.000000 1.000000
vn 0.000000 0.000000 1.000000
vn 0.000000 0.000000 1.000000
vn 0.000000 0.000000 1.000000
vn 0.000000 0.980906 0.194483
vn 0.000000 0.980159 0.198215
vn 0.000000 0.980444 0.196798
vn 0.000000 0.980906 0.194483
vn 0.000000 0.000000 -1.000000
vn 0.000000 0.000000 -1.000000
vn 0.000000 0.000000 -1.000000
vn 0.000000 0.000000 -1.000000
vn 0.000000 -0.978122 0.208030
vn 0.000000 -0.978122 0.208030
vn 0.000000 -0.978122 0.208030
vn 0.000000 -0.978122 0.208030
vn 0.988934 0.018817 0.147160
vn 0.989619 -0.000491 0.143712
vn 0.955319 0.262551 0.135765
vn 0.953971 0.262180 0.145608
vn -0.989619 -0.000491 0.143712
vn -0.988934 0.018817 0.147160
vn -0.953971 0.262180 0.145608
vn -0.955319 0.262551 0.135765
vn 0.000000 -0.235781 0.971806
vn 0.000000 -0.235781 0.971806
vn 0.000000 -0.235781 0.971806
vn 0.000000 -0.235781 0.971806
vn 0.951279 -0.274085 0.141230
vn 0.951279 -0.274085 0.141230
vn 0.000000 0.000000 -1.000000
vn 0.000000 0.000000 -1.000000
vn -0.951279 -0.274085 0.141230
vn -0.951279 -0.274085 0.141230
vn 0.000000 -0.978122 0.208030
vn 0.000000 -0.978122 0.208030
vn 0.000000 0.000000 -1.000000
vn 0.000000 0.000000 -1.000000
vn 0.000000 0.000000 -1.000000
vn 0.000000 0.980444 0.196798
vn 0.000000 0.980906 0.194483
vn 0.000000 0.000000 1.000000
vn 0.000000 0.000000 1.000000
vn 0.000000 -0.235781 0.971806
vn 0.000000 -0.235781 0.971806
vn 0.000000 1.000000 0.000000
vn 0.000000 1.000000 0.000000
vn 0.000000 1.000000 0.000000
vn 0.000000 1.000000 0.000000
vn 0.964247 0.265004 0.000000
vn 0.964247 0.265004 0.000000
vn 0.964247 0.265004 0.000000
vn 0.964247 0.265004 0.000000
vn 0.964247 -0.265004 0.000000
vn 0.964247 -0.265004 0.000000
vn 0.964247 -0.265004 0.000000
vn 0.964247 -0.265004 0.000000
vn 0.000000 -1.000000 0.000000
vn 0.000000 -1.000000 0.000000
vn 0.000000 -1.000000 0.000000
vn 0.000000 -1.000000 0.000000
vn 0.000000 -1.000000 0.000000
vn 0.000000 -1.000000 0.000000
vn 0.000000 -1.000000 0.000000
vn 0.000000 -1.000000 0.000000
vn -0.964247 -0.265004 0.000000
vn -0.964247 -0.265004 0.000000
vn -0.964247 -0.265004 0.000000
vn -0.964247 -0.265004 0.000000
vn 0.000000 1.000000 0.000000
vn 0.000000 1.000000 0.000000
vn 0.000000 1.000000 0.000000
vn 0.000000 1.000000 0.000000
vn -0.964247 0.265004 0.000000
vn -0.964247 0.265004 0.000000
vn -0.964247 0.265004 0.000000
vn -0.964247 0.265004 0.000000
vn 0.000000 0.727089 -0.686543
vn 0.000000 0.727089 -0.686543
vn 0.000000 0.727089 -0.686543
vn 0.000000 0.727089 -0.686543
vn 0.807504 0.221927 -0.546522
vn 0.807504 0.221926 -0.546522
vn 0.807504 0.221927 -0.546522
vn 0.807504 0.221927 -0.546522
vn 0.807504 -0.221926 -0.546522
vn 0.807504 -0.221927 -0.546522
vn 0.807504 -0.221927 -0.546522
vn 0.807504 -0.221927 -0.546522
vn 0.000000 -0.727089 -0.686543
vn 0.000000 -0.727089 -0.686543
vn 0.000000 -0.727089 -0.686543
vn 0.000000 -0.727089 -0.686543
vn 0.000000 -0.727089 -0.686543
vn 0.000000 -0.727089 -0.686543
vn 0.000000 -0.727089 -0.686543
vn 0.000000 -0.727089 -0.686543
vn -0.807504 -0.221927 -0.546522
vn -0.807504 -0.221926 -0.546522
vn -0.807504 -0.221927 -0.546522
vn -0.807504 -0.221927 -0.546522
vn 0.000000 0.727089 -0.686543
vn 0.000000 0.727089 -0.686543
vn 0.000000 0.727089 -0.686543
vn 0.000000 0.727089 -0.686543
vn -0.807504 0.221926 -0.546522
vn -0.807504 0.221927 -0.546522
vn -0.807504 0.221927 -0.546522
vn -0.807504 0.221927 -0.546522
vn 0.000000 1.000000 0.000000
vn 0.000000 1.000000 0.000000
vn 0.000000 1.000000 0.000000
vn 0.000000 1.000000 0.000000
vn 0.964247 0.265005 0.000000
vn 0.964247 0.265005 0.000000
vn 0.964247 0.265005 0.000000
vn 0.964247 0.265005 0.000000
vn 0.964247 -0.265005 0.000000
vn 0.964247 -0.265005 0.000000
vn 0.964247 -0.265005 0.000000
vn 0.964247 -0.265005 0.000000
vn 0.000000 -1.000000 0.000000
vn 0.000000 -1.000000 0.000000
vn 0.000000 -1.000000 0.000000
vn 0.000000 -1.000000 0.000000
vn 0.000000 -1.000000 0.000000
vn 0.000000 -1.000000 0.000000
vn -0.964247 -0.265005 0.000000
vn -0.964247 -0.265005 0.000000
vn -0.964247 -0.265005 0.000000
vn -0.964247 -0.265005 0.000000
vn 0.000000 1.000000 0.000000
vn 0.000000 1.000000 0.000000
vn -0.964247 0.265005 0.000000
vn -0.964247 0.265005 0.000000
vn -0.964247 0.265005 0.000000
vn -0.964247 0.265005 0.000000
vn 0.000000 0.898739 0.438485
vn 0.000000 0.898739 0.438485
vn 0.000000 0.996647 0.081827
vn 0.000000 0.994335 0.106293
vn 0.913699 0.251112 0.319527
vn 0.913699 0.251112 0.319527
vn 0.962425 0.264504 0.061453
vn 0.962243 0.264453 0.064448
vn 0.913699 -0.251112 0.319527
vn 0.913699 -0.251112 0.319527
vn 0.962243 -0.264453 0.064448
vn 0.962425 -0.264504 0.061453
vn 0.000000 -0.898739 0.438485
vn 0.000000 -0.898739 0.438485
vn 0.000000 -0.994335 0.106293
vn 0.000000 -0.996647 0.081827
vn 0.000000 -0.898739 0.438485
vn 0.000000 -0.898739 0.438485
vn 0.000000 -0.996647 0.081827
vn -0.913699 -0.251112 0.319527
vn -0.913699 -0.251112 0.319527
vn -0.962425 -0.264504 0.061453
vn -0.962243 -0.264453 0.064448
vn 0.000000 0.898739 0.438485
vn 0.000000 0.898739 0.438485
vn 0.000000 0.996647 0.081827
vn -0.913699 0.251112 0.319527
vn -0.913699 0.251112 0.319527
vn -0.962243 0.264453 0.064448
vn -0.962425 0.264504 0.061453
vn 0.000000 1.000000 -0.000000
vn 0.000000 1.000000 -0.000000
vn 0.964247 0.265004 0.000000
vn 0.964247 0.265004 0.000000
vn 0.964247 -0.265004 0.000000
vn 0.964247 -0.265004 0.000000
vn 0.000000 -1.000000 0.000000
vn 0.000000 -1.000000 0.000000
vn 0.000000 -1.000000 0.000000
vn -0.964247 -0.265004 0.000000
vn -0.964247 -0.265004 0.000000
vn 0.000000 1.000000 0.000000
vn -0.964247 0.265004 0.000000
vn -0.964247 0.265004 0.000000
vn 0.000000 -0.970408 0.241472
vn 0.000000 -0.970408 0.241472
vn 0.000000 -0.970408 0.241472
vn 0.000000 -0.970408 0.241472
vn 0.929011 0.255321 0.267862
vn 0.929011 0.255321 0.267862
vn 0.000000 0.970408 0.241472
vn 0.000000 0.970408 0.241472
vn 0.000000 -0.970408 0.241472
vn 0.000000 -0.970408 0.241472
vn 0.000000 0.970408 0.241472
vn -0.929011 0.255321 0.267862
vn -0.929011 0.255321 0.267862
vn 0.000000 1.000000 -0.000000
vn 0.000000 1.000000 -0.000000
vn 0.964247 0.265004 0.000000
vn 0.964247 0.265004 0.000000
vn 0.964247 -0.265004 0.000000
vn 0.964247 -0.265004 0.000000
vn 0.000000 -1.000000 0.000000
vn 0.000000 -1.000000 0.000000
vn 0.000000 -1.000000 0.000000
vn -0.964247 -0.265004 0.000000
vn -0.964247 -0.265004 0.000000
vn 0.000000 1.000000 0.000000
vn -0.964247 0.265004 0.000000
vn -0.964247 0.265004 0.000000
s 1
g pCube2
usemtl initialShadingGroup
f 58/71/1 59/68/2 60/69/3 61/70/4
s 2
f 15/25/5 16/26/6 4/4/7 6/6/8
s 3
f 64/24/9 65/72/10 66/73/11 67/74/12
s 4
f 13/22/13 14/23/14 8/8/15 2/10/16
s 5
f 10/16/17 11/18/18 6/12/19 4/4/20
s 6
f 12/19/21 9/15/22 3/3/23 5/14/24
s 7
f 17/27/25 13/21/26 2/2/27 10/16/28
s 5
f 2/2/29 8/11/30 11/18/18 10/16/17
s 3
f 68/76/31 64/24/9 67/74/12 69/75/32
s 6
f 7/13/33 1/1/34 9/15/22 12/19/21
s 4
f 7/7/35 14/23/14 13/22/13 1/9/36
s 3
f 70/78/37 64/24/9 68/76/31 71/77/38
f 72/79/39 65/72/10 64/24/9 70/78/37
s 2
f 3/3/40 16/26/6 15/25/5 5/5/41
s 1
f 62/80/42 59/68/2 58/71/1 63/81/43
s 7
f 1/1/44 13/21/26 17/27/25 9/15/45
s off
f 15/25/46 6/6/47 19/29/48 18/28/49
f 6/6/50 11/17/51 20/30/52 19/29/53
f 11/17/54 8/8/55 22/31/56 20/30/57
f 8/8/58 14/23/59 21/32/60 22/31/61
f 14/23/62 7/7/63 24/33/64 21/32/65
f 7/7/66 12/20/67 23/34/68 24/33/69
f 5/5/70 15/25/71 18/28/72 25/35/73
f 12/20/74 5/5/75 25/35/76 23/34/77
f 18/28/78 19/29/79 27/37/80 26/36/81
f 19/29/82 20/30/83 28/38/84 27/37/85
f 20/30/86 22/31/87 30/39/88 28/38/89
f 22/31/90 21/32/91 29/40/92 30/39/93
f 21/32/94 24/33/95 32/41/96 29/40/97
f 24/33/98 23/34/99 31/42/100 32/41/101
f 25/35/102 18/28/103 26/36/104 33/43/105
f 23/34/106 25/35/107 33/43/108 31/42/109
s 8
f 26/36/110 27/37/111 35/45/112 34/44/113
s off
f 27/37/114 28/38/115 36/46/116 35/45/117
f 28/38/118 30/39/119 38/47/120 36/46/121
s 9
f 30/39/122 29/40/123 37/48/124 38/47/125
f 29/40/123 32/41/126 40/49/127 37/48/124
s off
f 32/41/128 31/42/129 39/50/130 40/49/131
s 8
f 33/43/132 26/36/110 34/44/113 41/51/133
s off
f 31/42/134 33/43/135 41/51/136 39/50/137
s 10
f 34/44/138 35/45/139 43/53/140 42/52/141
s 11
f 35/45/142 36/46/143 44/54/144 43/53/145
s 12
f 36/46/146 38/47/147 46/55/148 44/54/149
s 13
f 38/47/150 37/48/151 45/56/152 46/55/153
f 37/48/154 40/49/155 48/57/156 45/56/152
s 15
f 40/49/157 39/50/158 47/58/159 48/57/160
s 10
f 41/51/161 34/44/162 42/52/141 49/59/163
s 17
f 39/50/164 41/51/165 49/59/166 47/58/167
s 10
f 42/52/141 43/53/140 51/61/168 50/60/169
s 11
f 43/53/145 44/54/144 52/62/170 51/61/171
s 12
f 44/54/149 46/55/148 54/63/172 52/62/173
s 13
f 46/55/153 45/56/152 53/64/174 54/63/175
f 45/56/152 48/57/156 56/65/176 53/64/174
s 15
f 48/57/160 47/58/159 55/66/177 56/65/178
s 10
f 49/59/163 42/52/141 50/60/169 57/67/179
s 17
f 47/58/167 49/59/166 57/67/180 55/66/181
s 18
f 17/27/182 10/16/183 60/69/184 59/68/185
s 5
f 10/16/17 4/4/20 61/70/186 60/69/187
s 2
f 4/4/7 16/26/6 58/71/188 61/70/189
s 18
f 9/82/190 17/83/182 59/84/185 62/85/191
s 2
f 16/86/6 3/87/40 63/88/192 58/89/188
s 6
f 3/90/23 9/91/22 62/92/193 63/93/194
s 10
f 50/94/169 51/95/168 66/96/195 65/97/196
s 11
f 51/98/171 52/99/170 67/100/197 66/101/198
s 12
f 52/102/173 54/103/172 69/104/199 67/105/200
s 13
f 54/106/175 53/107/174 68/108/201 69/109/202
f 53/110/174 56/111/176 71/112/203 68/113/201
s 15
f 56/114/178 55/115/177 70/116/204 71/117/205
s 10
f 57/118/179 50/119/169 65/120/196 72/121/206
s 17
f 55/122/181 57/123/180 72/124/207 70/125/208
