# This file uses centimeters as units for non-parametric coordinates.

mtllib EscortFrigate.mtl
g default
v -0.118439 -0.156702 0.348692
v 0.118439 -0.156702 0.348692
v -0.118439 0.156702 0.377014
v 0.118439 0.156702 0.377014
v -0.202506 0.267929 -0.040891
v 0.202507 0.267929 -0.040891
v -0.202506 -0.267929 -0.040891
v 0.202507 -0.267929 -0.040891
v -0.192092 0.000000 0.377014
v 0.192092 0.000000 0.377014
v 0.328438 0.000000 -0.040891
v -0.328438 0.000000 -0.040891
v 0.000000 -0.156702 0.348692
v 0.000000 -0.267929 -0.040891
v 0.000000 0.267929 -0.040891
v 0.000000 0.156702 0.377014
v 0.000000 0.000000 0.377014
v 0.000000 0.267929 -0.385008
v 0.202507 0.267929 -0.385008
v 0.328438 0.000000 -0.385008
v 0.000000 -0.267929 -0.385008
v 0.202507 -0.267929 -0.385008
v -0.328438 0.000000 -0.385008
v -0.202506 -0.267929 -0.385008
v -0.202506 0.267929 -0.385008
v 0.000000 0.193064 -0.444072
v 0.145922 0.193064 -0.444072
v 0.236665 0.000000 -0.444072
v 0.000000 -0.193064 -0.444072
v 0.145922 -0.193064 -0.444072
v -0.236665 0.000000 -0.444072
v -0.145922 -0.193064 -0.444072
v -0.145922 0.193064 -0.444072
v 0.000000 0.193064 -0.488638
v 0.145922 0.193064 -0.488638
v 0.236665 0.000000 -0.488638
v 0.000000 -0.193064 -0.488638
v 0.145922 -0.193064 -0.488638
v -0.236665 0.000000 -0.488638
v -0.145922 -0.193064 -0.488638
v -0.145922 0.193064 -0.488638
v 0.000000 0.231586 -0.547457
v 0.175038 0.231586 -0.547457
v 0.283888 0.000000 -0.547457
v 0.000000 -0.231586 -0.547457
v 0.175038 -0.231586 -0.547457
v -0.283888 0.000000 -0.547457
v -0.175038 -0.231586 -0.547457
v -0.175038 0.231586 -0.547457
v 0.000000 0.231586 -0.739654
v 0.175038 0.231586 -0.739654
v 0.283888 0.000000 -0.739654
v 0.000000 -0.231586 -0.739654
v 0.175038 -0.231586 -0.739654
v -0.283888 0.000000 -0.739654
v -0.175038 -0.231586 -0.739654
v -0.175038 0.231586 -0.739654
v 0.000000 0.138535 0.431403
v 0.000000 0.018168 0.431403
v 0.147551 0.018168 0.431403
v 0.090976 0.138535 0.431403
v -0.147551 0.018168 0.431403
v -0.090976 0.138535 0.431403
v 0.000000 -0.000000 -0.794042
v 0.000000 0.231586 -0.794042
v 0.175038 0.231586 -0.794042
v 0.283888 -0.000000 -0.794042
v 0.000000 -0.231586 -0.794042
v 0.175038 -0.231586 -0.794042
v -0.283888 -0.000000 -0.794042
v -0.175038 -0.231586 -0.794042
v -0.175038 0.231586 -0.794042
v 0.202507 -0.267929 0.376137
v 0.118439 -0.156702 0.765720
v 0.328438 0.000000 0.376137
v 0.192092 0.000000 0.794042
v -0.202506 -0.267929 0.376137
v -0.118439 -0.156702 0.765720
v -0.192092 0.000000 0.794042
v -0.328438 0.000000 0.376137
vt 0.375000 0.000000
vt 0.625000 0.000000
vt 0.375000 0.250000
vt 0.625000 0.250000
vt 0.375000 0.500000
vt 0.625000 0.500000
vt 0.375000 0.750000
vt 0.625000 0.750000
vt 0.375000 1.000000
vt 0.625000 1.000000
vt 0.875000 0.000000
vt 0.875000 0.250000
vt 0.125000 0.000000
vt 0.125000 0.250000
vt 0.375000 0.125000
vt 0.625000 0.125000
vt 0.625000 0.625000
vt 0.875000 0.125000
vt 0.125000 0.125000
vt 0.375000 0.625000
vt 0.500000 0.000000
vt 0.500000 1.000000
vt 0.500000 0.750000
vt 0.500000 0.625000
vt 0.500000 0.500000
vt 0.500000 0.250000
vt 0.500000 0.125000
vt 0.500000 0.500000
vt 0.625000 0.500000
vt 0.625000 0.625000
vt 0.625000 0.750000
vt 0.500000 0.750000
vt 0.375000 0.750000
vt 0.375000 0.625000
vt 0.375000 0.500000
vt 0.500000 0.500000
vt 0.625000 0.500000
vt 0.625000 0.625000
vt 0.625000 0.750000
vt 0.500000 0.750000
vt 0.375000 0.750000
vt 0.375000 0.625000
vt 0.375000 0.500000
vt 0.500000 0.500000
vt 0.625000 0.500000
vt 0.625000 0.625000
vt 0.625000 0.750000
vt 0.500000 0.750000
vt 0.375000 0.750000
vt 0.375000 0.625000
vt 0.375000 0.500000
vt 0.500000 0.500000
vt 0.625000 0.500000
vt 0.625000 0.625000
vt 0.625000 0.750000
vt 0.500000 0.750000
vt 0.375000 0.750000
vt 0.375000 0.625000
vt 0.375000 0.500000
vt 0.500000 0.500000
vt 0.625000 0.500000
vt 0.625000 0.625000
vt 0.625000 0.750000
vt 0.500000 0.750000
vt 0.375000 0.750000
vt 0.375000 0.625000
vt 0.375000 0.500000
vt 0.500000 0.125000
vt 0.625000 0.125000
vt 0.625000 0.250000
vt 0.500000 0.250000
vt 0.500000 0.500000
vt 0.625000 0.500000
vt 0.625000 0.625000
vt 0.625000 0.750000
vt 0.500000 0.750000
vt 0.375000 0.750000
vt 0.375000 0.625000
vt 0.375000 0.500000
vt 0.375000 0.125000
vt 0.375000 0.250000
vt 0.500000 0.500000
vt 0.625000 0.500000
vt 0.625000 0.500000
vt 0.500000 0.500000
vt 0.625000 0.500000
vt 0.625000 0.625000
vt 0.625000 0.625000
vt 0.625000 0.500000
vt 0.625000 0.625000
vt 0.625000 0.750000
vt 0.625000 0.750000
vt 0.625000 0.625000
vt 0.625000 0.750000
vt 0.500000 0.750000
vt 0.500000 0.750000
vt 0.625000 0.750000
vt 0.500000 0.750000
vt 0.375000 0.750000
vt 0.375000 0.750000
vt 0.500000 0.750000
vt 0.375000 0.750000
vt 0.375000 0.625000
vt 0.375000 0.625000
vt 0.375000 0.750000
vt 0.375000 0.500000
vt 0.500000 0.500000
vt 0.500000 0.500000
vt 0.375000 0.500000
vt 0.375000 0.625000
vt 0.375000 0.500000
vt 0.375000 0.500000
vt 0.375000 0.625000
vt 0.375000 0.125000
vt 0.500000 0.125000
vt 0.500000 0.125000
vt 0.375000 0.125000
vt 0.500000 0.250000
vt 0.375000 0.250000
vt 0.375000 0.250000
vt 0.500000 0.250000
vt 0.375000 0.250000
vt 0.375000 0.125000
vt 0.375000 0.125000
vt 0.375000 0.250000
vt 0.625000 0.000000
vt 0.875000 0.000000
vt 0.875000 0.125000
vt 0.625000 0.125000
vt 0.125000 0.000000
vt 0.375000 0.000000
vt 0.375000 0.125000
vt 0.125000 0.125000
vn 0.000000 0.000000 1.000000
vn 0.000000 0.000000 1.000000
vn 0.000000 0.000000 1.000000
vn 0.000000 0.000000 1.000000
vn 0.000000 0.966358 0.257199
vn 0.000000 0.965072 0.261984
vn 0.000000 0.965563 0.260168
vn 0.000000 0.966359 0.257199
vn 0.000000 0.000000 -1.000000
vn 0.000000 0.000000 -1.000000
vn 0.000000 0.000000 -1.000000
vn 0.000000 0.000000 -1.000000
vn 0.000000 -0.961578 0.274532
vn 0.000000 -0.961578 0.274532
vn 0.000000 -0.961578 0.274532
vn 0.000000 -0.961578 0.274532
vn 0.864490 0.406326 0.295900
vn 0.867971 0.407962 0.283185
vn 0.867971 0.407962 0.283185
vn 0.862677 0.405474 0.302290
vn -0.867971 0.407963 0.283184
vn -0.864489 0.406327 0.295900
vn -0.862677 0.405475 0.302290
vn -0.867971 0.407963 0.283184
vn 0.000000 -0.177858 0.984056
vn 0.000000 -0.177858 0.984056
vn 0.000000 -0.177858 0.984056
vn 0.000000 -0.177858 0.984056
vn 0.857817 -0.422690 0.292374
vn 0.857817 -0.422690 0.292374
vn 0.857817 -0.422690 0.292374
vn 0.857817 -0.422690 0.292374
vn 0.000000 0.000000 -1.000000
vn 0.000000 0.000000 -1.000000
vn -0.857817 -0.422691 0.292374
vn -0.857817 -0.422691 0.292374
vn -0.857817 -0.422691 0.292374
vn -0.857817 -0.422692 0.292374
vn 0.000000 -0.961578 0.274532
vn 0.000000 -0.961578 0.274532
vn 0.000000 0.000000 -1.000000
vn 0.000000 0.000000 -1.000000
vn 0.000000 0.000000 -1.000000
vn 0.000000 0.965563 0.260168
vn 0.000000 0.966358 0.257199
vn 0.000000 0.000000 1.000000
vn 0.000000 0.000000 1.000000
vn 0.000000 -0.177858 0.984056
vn 0.000000 -0.177858 0.984056
vn 0.000000 1.000000 0.000000
vn 0.000000 1.000000 0.000000
vn 0.000000 1.000000 0.000000
vn 0.000000 1.000000 0.000000
vn 0.905018 0.425374 0.000000
vn 0.905018 0.425374 0.000000
vn 0.905018 0.425374 0.000000
vn 0.905018 0.425374 0.000000
vn 0.905018 -0.425374 0.000000
vn 0.905018 -0.425374 0.000000
vn 0.905018 -0.425374 0.000000
vn 0.905018 -0.425374 0.000000
vn 0.000000 -1.000000 0.000000
vn 0.000000 -1.000000 0.000000
vn 0.000000 -1.000000 0.000000
vn 0.000000 -1.000000 0.000000
vn 0.000000 -1.000000 0.000000
vn 0.000000 -1.000000 0.000000
vn 0.000000 -1.000000 0.000000
vn 0.000000 -1.000000 0.000000
vn -0.905017 -0.425375 0.000000
vn -0.905017 -0.425375 0.000000
vn -0.905017 -0.425375 0.000000
vn -0.905017 -0.425375 0.000000
vn 0.000000 1.000000 0.000000
vn 0.000000 1.000000 0.000000
vn 0.000000 1.000000 0.000000
vn 0.000000 1.000000 0.000000
vn -0.905017 0.425375 0.000000
vn -0.905017 0.425375 0.000000
vn -0.905017 0.425375 0.000000
vn -0.905017 0.425375 0.000000
vn 0.000000 0.619386 -0.785087
vn 0.000000 0.619386 -0.785087
vn 0.000000 0.619386 -0.785087
vn 0.000000 0.619386 -0.785087
vn 0.524491 0.246520 -0.814946
vn 0.524491 0.246520 -0.814946
vn 0.524491 0.246520 -0.814946
vn 0.524491 0.246520 -0.814946
vn 0.524491 -0.246520 -0.814946
vn 0.524491 -0.246520 -0.814946
vn 0.524491 -0.246520 -0.814946
vn 0.524491 -0.246520 -0.814946
vn 0.000000 -0.619386 -0.785087
vn 0.000000 -0.619386 -0.785087
vn 0.000000 -0.619386 -0.785087
vn 0.000000 -0.619386 -0.785087
vn 0.000000 -0.619386 -0.785087
vn 0.000000 -0.619386 -0.785087
vn 0.000000 -0.619386 -0.785087
vn 0.000000 -0.619386 -0.785087
vn -0.524492 -0.246521 -0.814945
vn -0.524492 -0.246521 -0.814945
vn -0.524492 -0.246521 -0.814945
vn -0.524492 -0.246521 -0.814945
vn 0.000000 0.619386 -0.785087
vn 0.000000 0.619386 -0.785087
vn 0.000000 0.619386 -0.785087
vn 0.000000 0.619386 -0.785087
vn -0.524492 0.246521 -0.814945
vn -0.524492 0.246521 -0.814945
vn -0.524492 0.246521 -0.814945
vn -0.524492 0.246521 -0.814945
vn 0.000000 1.000000 0.000000
vn 0.000000 1.000000 0.000000
vn 0.000000 1.000000 0.000000
vn 0.000000 1.000000 0.000000
vn 0.905017 0.425376 0.000000
vn 0.905017 0.425376 0.000000
vn 0.905017 0.425376 0.000000
vn 0.905017 0.425376 0.000000
vn 0.905017 -0.425376 0.000000
vn 0.905017 -0.425376 0.000000
vn 0.905017 -0.425376 0.000000
vn 0.905017 -0.425376 0.000000
vn 0.000000 -1.000000 0.000000
vn 0.000000 -1.000000 0.000000
vn 0.000000 -1.000000 0.000000
vn 0.000000 -1.000000 0.000000
vn 0.000000 -1.000000 0.000000
vn 0.000000 -1.000000 0.000000
vn -0.905017 -0.425374 0.000000
vn -0.905017 -0.425374 0.000000
vn -0.905017 -0.425374 0.000000
vn -0.905017 -0.425374 0.000000
vn 0.000000 1.000000 0.000000
vn 0.000000 1.000000 0.000000
vn -0.905017 0.425374 0.000000
vn -0.905017 0.425374 0.000000
vn -0.905017 0.425374 0.000000
vn -0.905017 0.425374 0.000000
vn 0.000000 0.836553 0.547886
vn 0.000000 0.836553 0.547886
vn 0.000000 0.993981 0.109549
vn 0.000000 0.989860 0.142043
vn 0.732159 0.344129 0.587809
vn 0.732159 0.344129 0.587809
vn 0.897156 0.421681 0.131513
vn 0.896379 0.421316 0.137830
vn 0.732159 -0.344129 0.587809
vn 0.732159 -0.344129 0.587809
vn 0.896379 -0.421316 0.137830
vn 0.897156 -0.421681 0.131513
vn 0.000000 -0.836553 0.547886
vn 0.000000 -0.836553 0.547886
vn 0.000000 -0.989860 0.142043
vn 0.000000 -0.993981 0.109549
vn 0.000000 -0.836553 0.547886
vn 0.000000 -0.836553 0.547886
vn 0.000000 -0.993981 0.109550
vn -0.732160 -0.344129 0.587807
vn -0.732160 -0.344129 0.587808
vn -0.897156 -0.421681 0.131513
vn -0.896379 -0.421316 0.137830
vn 0.000000 0.836553 0.547886
vn 0.000000 0.836553 0.547885
vn 0.000000 0.993981 0.109550
vn -0.732160 0.344129 0.587807
vn -0.732160 0.344129 0.587807
vn -0.896379 0.421316 0.137830
vn -0.897156 0.421681 0.131513
vn 0.000000 1.000000 0.000000
vn 0.000000 1.000000 0.000000
vn 0.905017 0.425376 0.000000
vn 0.905017 0.425376 0.000000
vn 0.905017 -0.425376 0.000000
vn 0.905017 -0.425376 0.000000
vn 0.000000 -1.000000 0.000000
vn 0.000000 -1.000000 0.000000
vn 0.000000 -1.000000 0.000000
vn -0.905017 -0.425376 0.000000
vn -0.905017 -0.425376 0.000000
vn 0.000000 1.000000 0.000000
vn -0.905017 0.425376 0.000000
vn -0.905017 0.425376 0.000000
vn 0.000000 -0.948484 0.316824
vn 0.000000 -0.948484 0.316824
vn 0.000000 -0.948484 0.316824
vn 0.000000 -0.948484 0.316824
vn 0.776366 0.364907 0.513904
vn 0.776366 0.364907 0.513905
vn 0.000000 0.948484 0.316824
vn 0.000000 0.948484 0.316824
vn 0.000000 -0.948484 0.316824
vn 0.000000 -0.948484 0.316824
vn 0.000000 0.948484 0.316824
vn -0.776365 0.364908 0.513906
vn -0.776365 0.364908 0.513906
vn 0.000000 1.000000 0.000000
vn 0.000000 1.000000 0.000000
vn 0.905017 0.425375 0.000000
vn 0.905017 0.425375 0.000000
vn 0.905017 -0.425375 0.000000
vn 0.905017 -0.425375 0.000000
vn 0.000000 -1.000000 0.000000
vn 0.000000 -1.000000 0.000000
vn 0.000000 -1.000000 0.000000
vn -0.905017 -0.425375 0.000000
vn -0.905017 -0.425375 0.000000
vn 0.000000 1.000000 0.000000
vn -0.905017 0.425375 0.000000
vn -0.905017 0.425375 0.000000
vn -0.797764 -0.602970 0.000000
vn -0.797764 -0.602970 0.000000
vn -0.797764 -0.602970 0.000000
vn -0.797764 -0.602970 0.000000
vn 0.905018 -0.425374 0.000000
vn 0.905018 -0.425374 0.000000
vn 0.905018 -0.425374 0.000000
vn 0.905018 -0.425374 0.000000
vn 0.000000 1.000000 0.000000
vn 0.000000 1.000000 0.000000
vn 0.000000 1.000000 0.000000
vn 0.000000 1.000000 0.000000
vn -0.905017 0.425375 0.000000
vn -0.905017 0.425375 0.000000
vn -0.905017 0.425375 0.000000
vn -0.905017 0.425375 0.000000
vn 0.797765 -0.602968 0.000000
vn 0.797765 -0.602968 0.000000
vn 0.797765 -0.602968 0.000000
vn 0.797765 -0.602968 0.000000
vn 0.905016 0.425377 0.000000
vn 0.905016 0.425377 0.000000
vn 0.905016 0.425377 0.000000
vn 0.905016 0.425377 0.000000
vn 0.000000 1.000000 0.000000
vn 0.000000 1.000000 0.000000
vn 0.000000 1.000000 0.000000
vn 0.000000 1.000000 0.000000
vn -0.905017 -0.425375 0.000000
vn -0.905017 -0.425375 0.000000
vn -0.905017 -0.425375 0.000000
vn -0.905017 -0.425375 0.000000
s 1
g pCube4
usemtl initialShadingGroup
f 58/71/1 59/68/2 60/69/3 61/70/4
s 2
f 15/25/5 16/26/6 4/4/7 6/6/8
s 3
f 64/24/9 65/72/10 66/73/11 67/74/12
s 4
f 13/22/13 14/23/14 8/8/15 2/10/16
s 5
f 10/16/17 11/18/18 6/12/19 4/4/20
s 6
f 12/19/21 9/15/22 3/3/23 5/14/24
s 7
f 17/27/25 13/21/26 2/2/27 10/16/28
s off
f 74/126/29 73/127/30 75/128/31 76/129/32
s 3
f 68/76/33 64/24/9 67/74/12 69/75/34
s off
f 77/130/35 78/131/36 79/132/37 80/133/38
s 4
f 7/7/39 14/23/14 13/22/13 1/9/40
s 3
f 70/78/41 64/24/9 68/76/33 71/77/42
f 72/79/43 65/72/10 64/24/9 70/78/41
s 2
f 3/3/44 16/26/6 15/25/5 5/5/45
s 1
f 62/80/46 59/68/2 58/71/1 63/81/47
s 7
f 1/1/48 13/21/26 17/27/25 9/15/49
s off
f 15/25/50 6/6/51 19/29/52 18/28/53
f 6/6/54 11/17/55 20/30/56 19/29/57
f 11/17/58 8/8/59 22/31/60 20/30/61
f 8/8/62 14/23/63 21/32/64 22/31/65
f 14/23/66 7/7/67 24/33/68 21/32/69
f 7/7/70 12/20/71 23/34/72 24/33/73
f 5/5/74 15/25/75 18/28/76 25/35/77
f 12/20/78 5/5/79 25/35/80 23/34/81
f 18/28/82 19/29/83 27/37/84 26/36/85
f 19/29/86 20/30/87 28/38/88 27/37/89
f 20/30/90 22/31/91 30/39/92 28/38/93
f 22/31/94 21/32/95 29/40/96 30/39/97
f 21/32/98 24/33/99 32/41/100 29/40/101
f 24/33/102 23/34/103 31/42/104 32/41/105
f 25/35/106 18/28/107 26/36/108 33/43/109
f 23/34/110 25/35/111 33/43/112 31/42/113
s 8
f 26/36/114 27/37/115 35/45/116 34/44/117
s off
f 27/37/118 28/38/119 36/46/120 35/45/121
f 28/38/122 30/39/123 38/47/124 36/46/125
s 9
f 30/39/126 29/40/127 37/48/128 38/47/129
f 29/40/127 32/41/130 40/49/131 37/48/128
s off
f 32/41/132 31/42/133 39/50/134 40/49/135
s 8
f 33/43/136 26/36/114 34/44/117 41/51/137
s off
f 31/42/138 33/43/139 41/51/140 39/50/141
s 10
f 34/44/142 35/45/143 43/53/144 42/52/145
s 11
f 35/45/146 36/46/147 44/54/148 43/53/149
s 12
f 36/46/150 38/47/151 46/55/152 44/54/153
s 13
f 38/47/154 37/48/155 45/56/156 46/55/157
f 37/48/158 40/49/159 48/57/160 45/56/156
s 15
f 40/49/161 39/50/162 47/58/163 48/57/164
s 10
f 41/51/165 34/44/166 42/52/145 49/59/167
s 17
f 39/50/168 41/51/169 49/59/170 47/58/171
s 10
f 42/52/145 43/53/144 51/61/172 50/60/173
s 11
f 43/53/149 44/54/148 52/62/174 51/61/175
s 12
f 44/54/153 46/55/152 54/63/176 52/62/177
s 13
f 46/55/157 45/56/156 53/64/178 54/63/179
f 45/56/156 48/57/160 56/65/180 53/64/178
s 15
f 48/57/164 47/58/163 55/66/181 56/65/182
s 10
f 49/59/167 42/52/145 50/60/173 57/67/183
s 17
f 47/58/171 49/59/170 57/67/184 55/66/185
s 18
f 17/27/186 10/16/187 60/69/188 59/68/189
s 5
f 10/16/17 4/4/20 61/70/190 60/69/191
s 2
f 4/4/7 16/26/6 58/71/192 61/70/193
s 18
f 9/82/194 17/83/186 59/84/189 62/85/195
s 2
f 16/86/6 3/87/44 63/88/196 58/89/192
s 6
f 3/90/23 9/91/22 62/92/197 63/93/198
s 10
f 50/94/173 51/95/172 66/96/199 65/97/200
s 11
f 51/98/175 52/99/174 67/100/201 66/101/202
s 12
f 52/102/177 54/103/176 69/104/203 67/105/204
s 13
f 54/106/179 53/107/178 68/108/205 69/109/206
f 53/110/178 56/111/180 71/112/207 68/113/205
s 15
f 56/114/182 55/115/181 70/116/208 71/117/209
s 10
f 57/118/183 50/119/173 65/120/200 72/121/210
s 17
f 55/122/185 57/123/184 72/124/211 70/125/212
s off
f 2/2/213 8/11/214 73/127/215 74/126/216
f 8/11/217 11/18/218 75/128/219 73/127/220
f 11/18/221 10/16/222 76/129/223 75/128/224
f 10/16/225 2/2/226 74/126/227 76/129/228
f 7/13/229 1/1/230 78/131/231 77/130/232
f 1/1/233 9/15/234 79/132/235 78/131/236
f 9/15/237 12/19/238 80/133/239 79/132/240
f 12/19/241 7/13/242 77/130/243 80/133/244
