# This file uses centimeters as units for non-parametric coordinates.

mtllib SWACSFrigate.mtl
g default
v -0.131389 0.171972 0.394846
v 0.131389 0.171972 0.394846
v -0.131389 -0.171973 0.394845
v 0.131389 -0.171973 0.394845
v 0.213095 -0.000001 0.394846
v -0.213095 -0.000001 0.394846
v 0.000000 -0.171973 0.394845
v 0.000000 0.171972 0.394846
v 0.000000 0.171971 -0.117722
v 0.131389 0.171971 -0.117722
v 0.213095 -0.000001 -0.117723
v 0.000000 -0.171974 -0.117723
v 0.131389 -0.171974 -0.117723
v -0.213095 -0.000001 -0.117723
v -0.131389 -0.171974 -0.117723
v -0.131389 0.171971 -0.117722
v 0.000000 0.123919 -0.205700
v 0.094676 0.123919 -0.205700
v 0.153552 -0.000001 -0.205700
v 0.000000 -0.123921 -0.205701
v 0.094676 -0.123921 -0.205701
v -0.153552 -0.000001 -0.205700
v -0.094676 -0.123921 -0.205701
v -0.094676 0.123919 -0.205700
v 0.000000 0.123918 -0.272083
v 0.094676 0.123918 -0.272083
v 0.153552 -0.000001 -0.272083
v 0.000000 -0.123921 -0.272084
v 0.094676 -0.123921 -0.272084
v -0.153552 -0.000001 -0.272083
v -0.094676 -0.123921 -0.272084
v -0.094676 0.123918 -0.272083
v 0.000000 0.148644 -0.359694
v 0.113567 0.148644 -0.359694
v 0.184190 -0.000001 -0.359694
v 0.000000 -0.148647 -0.359694
v 0.113567 -0.148647 -0.359694
v -0.184190 -0.000001 -0.359694
v -0.113567 -0.148647 -0.359694
v -0.113567 0.148644 -0.359694
v 0.000000 0.148644 -0.645976
v 0.113567 0.148644 -0.645976
v 0.184190 -0.000002 -0.645977
v 0.000000 -0.148647 -0.645977
v 0.113567 -0.148647 -0.645977
v -0.184190 -0.000002 -0.645977
v -0.113567 -0.148647 -0.645977
v -0.113567 0.148644 -0.645976
v 0.000000 -0.000002 -0.726990
v 0.000000 0.148644 -0.726989
v 0.113567 0.148644 -0.726989
v 0.184190 -0.000002 -0.726990
v 0.000000 -0.148647 -0.726990
v 0.113567 -0.148647 -0.726990
v -0.184190 -0.000002 -0.726990
v -0.113567 -0.148647 -0.726990
v -0.113567 0.148644 -0.726989
v 0.000000 -0.018510 0.624070
v 0.069013 -0.018510 0.624070
v 0.111930 0.022062 0.624070
v 0.069013 0.062634 0.624071
v 0.000000 0.062634 0.624071
v -0.069013 0.062634 0.624071
v -0.111930 0.022062 0.624070
v -0.069013 -0.018510 0.624070
v 0.000000 0.171972 0.281084
v 0.098898 0.171972 0.281084
v 0.098898 0.171972 -0.082377
v 0.000000 0.171972 -0.082377
v -0.098898 0.171972 0.281084
v -0.098898 0.171972 -0.082377
v 0.000000 0.196010 0.228899
v 0.098898 0.196010 0.228899
v 0.098898 0.196010 -0.046003
v 0.000000 0.196010 -0.046003
v -0.098898 0.196010 0.228899
v -0.098898 0.196010 -0.046003
v 0.000000 0.216047 0.228899
v 0.098898 0.216047 0.228899
v 0.098898 0.216047 -0.046003
v 0.000000 0.216047 -0.046003
v -0.098898 0.216047 0.228899
v -0.098898 0.216047 -0.046003
v 0.216840 0.196010 0.171043
v 0.216840 0.196011 0.011853
v 0.216840 0.216047 0.011853
v 0.216840 0.216047 0.171043
v -0.216840 0.196010 0.171043
v -0.216840 0.196011 0.011853
v -0.216840 0.216047 0.171043
v -0.216840 0.216047 0.011853
v 0.000000 0.022062 0.624070
v -0.016897 0.028187 0.624070
v -0.095032 0.028187 0.624070
v -0.016897 0.056509 0.624071
v -0.065073 0.056509 0.624071
v -0.016897 0.028185 0.726989
v -0.074360 0.028185 0.726989
v -0.016897 0.056507 0.726990
v -0.044401 0.056507 0.726990
vt 0.375000 0.500000
vt 0.625000 0.500000
vt 0.375000 0.750000
vt 0.625000 0.750000
vt 0.875000 0.000000
vt 0.125000 0.250000
vt 0.625000 0.625000
vt 0.875000 0.125000
vt 0.125000 0.125000
vt 0.375000 0.625000
vt 0.500000 0.750000
vt 0.500000 0.625000
vt 0.500000 0.500000
vt 0.500000 0.500000
vt 0.625000 0.500000
vt 0.625000 0.625000
vt 0.625000 0.750000
vt 0.500000 0.750000
vt 0.375000 0.750000
vt 0.375000 0.625000
vt 0.375000 0.500000
vt 0.500000 0.500000
vt 0.625000 0.500000
vt 0.625000 0.625000
vt 0.625000 0.750000
vt 0.500000 0.750000
vt 0.375000 0.750000
vt 0.375000 0.625000
vt 0.375000 0.500000
vt 0.500000 0.500000
vt 0.625000 0.500000
vt 0.625000 0.625000
vt 0.625000 0.750000
vt 0.500000 0.750000
vt 0.375000 0.750000
vt 0.375000 0.625000
vt 0.375000 0.500000
vt 0.500000 0.500000
vt 0.625000 0.500000
vt 0.625000 0.625000
vt 0.625000 0.750000
vt 0.500000 0.750000
vt 0.375000 0.750000
vt 0.375000 0.625000
vt 0.375000 0.500000
vt 0.500000 0.500000
vt 0.625000 0.500000
vt 0.625000 0.625000
vt 0.625000 0.750000
vt 0.500000 0.750000
vt 0.375000 0.750000
vt 0.375000 0.625000
vt 0.375000 0.500000
vt 0.500000 0.500000
vt 0.625000 0.500000
vt 0.625000 0.625000
vt 0.625000 0.750000
vt 0.500000 0.750000
vt 0.375000 0.750000
vt 0.375000 0.625000
vt 0.375000 0.500000
vt 0.625000 0.750000
vt 0.500000 0.750000
vt 0.500000 0.750000
vt 0.625000 0.750000
vt 0.500000 0.750000
vt 0.375000 0.750000
vt 0.375000 0.750000
vt 0.500000 0.750000
vt 0.375000 0.750000
vt 0.375000 0.625000
vt 0.375000 0.625000
vt 0.375000 0.750000
vt 0.375000 0.500000
vt 0.500000 0.500000
vt 0.500000 0.500000
vt 0.375000 0.500000
vt 0.375000 0.625000
vt 0.375000 0.500000
vt 0.375000 0.500000
vt 0.375000 0.625000
vt 0.375000 0.125000
vt 0.500000 0.125000
vt 0.500000 0.125000
vt 0.375000 0.125000
vt 0.500000 0.250000
vt 0.375000 0.250000
vt 0.375000 0.250000
vt 0.500000 0.250000
vt 0.375000 0.250000
vt 0.375000 0.125000
vt 0.375000 0.125000
vt 0.375000 0.250000
vt 0.500000 0.750000
vt 0.875000 0.000000
vt 0.875000 0.125000
vt 0.625000 0.500000
vt 0.500000 0.500000
vt 0.125000 0.250000
vt 0.125000 0.125000
vt 0.375000 0.750000
vt 0.500000 0.500000
vt 0.625000 0.500000
vt 0.625000 0.500000
vt 0.500000 0.500000
vt 0.375000 0.500000
vt 0.375000 0.500000
vt 0.500000 0.500000
vt 0.625000 0.500000
vt 0.625000 0.500000
vt 0.500000 0.500000
vt 0.375000 0.500000
vt 0.375000 0.500000
vt 0.500000 0.500000
vt 0.625000 0.500000
vt 0.625000 0.500000
vt 0.500000 0.500000
vt 0.375000 0.500000
vt 0.375000 0.500000
vt 0.625000 0.500000
vt 0.625000 0.500000
vt 0.625000 0.500000
vt 0.625000 0.500000
vt 0.375000 0.500000
vt 0.375000 0.500000
vt 0.375000 0.500000
vt 0.375000 0.500000
vt 0.500000 0.125000
vt 0.125000 0.125000
vt 0.500000 0.125000
vt 0.500000 0.500000
vt 0.125000 0.250000
vt 0.125000 0.125000
vt 0.500000 0.125000
vt 0.500000 0.500000
vt 0.125000 0.250000
vn 0.000000 0.000001 -1.000000
vn 0.000000 0.000003 -1.000000
vn 0.000000 0.000003 -1.000000
vn 0.000000 0.000001 -1.000000
vn 0.000000 0.000000 -1.000000
vn 0.000000 0.000000 -1.000000
vn 0.000000 0.000001 -1.000000
vn 0.000000 0.000000 -1.000000
vn 0.000000 0.000003 -1.000000
vn 0.000000 1.000000 0.000000
vn -0.000000 1.000000 0.000000
vn -0.000000 1.000000 0.000000
vn 0.000000 1.000000 0.000000
vn 0.891041 0.444822 0.090436
vn 0.895885 0.440099 0.060858
vn 0.903238 0.429140 -0.000000
vn 0.903238 0.429140 -0.000000
vn 0.893586 -0.440796 0.084871
vn 0.890316 -0.443085 0.104949
vn 0.903238 -0.429140 0.000000
vn 0.903238 -0.429140 0.000000
vn 0.000000 -0.991924 0.126830
vn 0.000000 -0.985813 0.167848
vn 0.000000 -1.000000 0.000001
vn 0.000000 -1.000000 0.000001
vn 0.000000 -0.991924 0.126830
vn 0.000000 -1.000000 0.000001
vn 0.000000 -1.000000 0.000001
vn -0.890315 -0.443085 0.104949
vn -0.893586 -0.440796 0.084871
vn -0.903238 -0.429140 0.000000
vn -0.903238 -0.429140 0.000000
vn 0.000000 1.000000 0.000000
vn 0.000000 1.000000 0.000000
vn 0.000000 1.000000 0.000000
vn 0.000000 1.000000 0.000000
vn -0.895885 0.440099 0.060858
vn -0.891041 0.444822 0.090436
vn -0.903238 0.429140 -0.000000
vn -0.903238 0.429140 -0.000000
vn 0.000000 0.877623 -0.479352
vn 0.000000 0.877623 -0.479352
vn 0.000000 0.877623 -0.479352
vn 0.000000 0.877623 -0.479352
vn 0.770647 0.366145 -0.521576
vn 0.770647 0.366145 -0.521576
vn 0.770647 0.366145 -0.521576
vn 0.770647 0.366145 -0.521576
vn 0.770648 -0.366143 -0.521575
vn 0.770648 -0.366143 -0.521575
vn 0.770648 -0.366143 -0.521575
vn 0.770648 -0.366143 -0.521575
vn 0.000000 -0.877623 -0.479351
vn 0.000000 -0.877623 -0.479351
vn 0.000000 -0.877623 -0.479351
vn 0.000000 -0.877623 -0.479351
vn 0.000000 -0.877623 -0.479351
vn 0.000000 -0.877623 -0.479351
vn 0.000000 -0.877623 -0.479351
vn 0.000000 -0.877623 -0.479351
vn -0.770648 -0.366143 -0.521575
vn -0.770648 -0.366143 -0.521576
vn -0.770648 -0.366143 -0.521575
vn -0.770648 -0.366143 -0.521576
vn 0.000000 0.877623 -0.479352
vn 0.000000 0.877623 -0.479352
vn 0.000000 0.877623 -0.479352
vn 0.000000 0.877623 -0.479352
vn -0.770647 0.366145 -0.521576
vn -0.770646 0.366145 -0.521576
vn -0.770646 0.366145 -0.521576
vn -0.770646 0.366145 -0.521576
vn 0.000000 1.000000 -0.000001
vn 0.000000 1.000000 -0.000001
vn 0.000000 1.000000 -0.000001
vn 0.000000 1.000000 -0.000001
vn 0.903238 0.429140 -0.000000
vn 0.903238 0.429140 -0.000000
vn 0.903238 0.429140 -0.000000
vn 0.903238 0.429140 -0.000000
vn 0.903238 -0.429140 0.000000
vn 0.903238 -0.429140 0.000000
vn 0.903238 -0.429140 0.000000
vn 0.903238 -0.429140 0.000000
vn 0.000000 -1.000000 0.000001
vn 0.000000 -1.000000 0.000001
vn 0.000000 -1.000000 0.000001
vn 0.000000 -1.000000 0.000001
vn 0.000000 -1.000000 0.000001
vn 0.000000 -1.000000 0.000001
vn -0.903238 -0.429140 0.000000
vn -0.903238 -0.429140 0.000000
vn -0.903238 -0.429140 0.000000
vn -0.903238 -0.429140 0.000000
vn 0.000000 1.000000 -0.000001
vn 0.000000 1.000000 -0.000001
vn -0.903238 0.429140 -0.000000
vn -0.903238 0.429140 -0.000000
vn -0.903238 0.429140 -0.000000
vn -0.903238 0.429140 -0.000000
vn 0.000000 0.962407 0.271613
vn 0.000000 0.962407 0.271613
vn 0.000000 0.998947 0.045871
vn 0.000000 0.998094 0.061717
vn 0.861292 0.409210 0.301202
vn 0.861292 0.409210 0.301202
vn 0.902027 0.428564 0.051770
vn 0.900909 0.428033 0.071766
vn 0.861292 -0.409211 0.301203
vn 0.861292 -0.409211 0.301203
vn 0.900909 -0.428034 0.071767
vn 0.902027 -0.428565 0.051771
vn 0.000000 -0.962406 0.271614
vn 0.000000 -0.962406 0.271614
vn 0.000000 -0.998094 0.061719
vn 0.000000 -0.998947 0.045873
vn 0.000000 -0.962406 0.271614
vn 0.000000 -0.962406 0.271614
vn 0.000000 -0.998947 0.045873
vn -0.861292 -0.409211 0.301203
vn -0.861292 -0.409211 0.301203
vn -0.902027 -0.428565 0.051771
vn -0.900909 -0.428034 0.071767
vn 0.000000 0.962407 0.271613
vn 0.000000 0.962407 0.271613
vn 0.000000 0.998947 0.045871
vn -0.861292 0.409210 0.301202
vn -0.861292 0.409210 0.301202
vn -0.900909 0.428033 0.071766
vn -0.902027 0.428564 0.051769
vn 0.000000 1.000000 -0.000001
vn 0.000000 1.000000 -0.000001
vn 0.903238 0.429140 -0.000000
vn 0.903238 0.429140 -0.000000
vn 0.903238 -0.429140 0.000000
vn 0.903238 -0.429140 0.000000
vn 0.000000 -1.000000 0.000001
vn 0.000000 -1.000000 0.000001
vn 0.000000 -1.000000 0.000001
vn -0.903238 -0.429140 0.000000
vn -0.903238 -0.429140 0.000000
vn 0.000000 1.000000 -0.000001
vn -0.903238 0.429140 -0.000000
vn -0.903238 0.429140 -0.000000
vn 0.000000 -0.000016 1.000000
vn 0.000000 -0.000016 1.000000
vn 0.000000 -0.000015 1.000000
vn 0.000000 -0.000016 1.000000
vn 0.000000 1.000000 -0.000001
vn 0.000000 1.000000 -0.000001
vn 0.903238 0.429140 -0.000000
vn 0.903238 0.429140 -0.000000
vn 0.903238 -0.429139 0.000000
vn 0.903238 -0.429139 0.000000
vn 0.000000 -1.000000 0.000001
vn 0.000000 -1.000000 0.000001
vn 0.000000 -1.000000 0.000001
vn -0.903238 -0.429140 0.000000
vn -0.903238 -0.429140 0.000000
vn 0.000000 1.000000 -0.000001
vn -0.903237 0.429141 -0.000000
vn -0.903238 0.429141 -0.000000
vn 0.000000 -0.830966 0.556323
vn 0.000000 -0.830966 0.556323
vn 0.771146 -0.452156 0.448206
vn 0.771146 -0.452156 0.448206
vn 0.799835 0.468973 0.374603
vn 0.799835 0.468973 0.374603
vn 0.000000 0.902579 0.430524
vn 0.000000 0.902579 0.430524
vn 0.000000 0.902579 0.430524
vn 0.000000 0.902579 0.430524
vn 0.000000 0.902579 0.430524
vn 0.000000 0.902579 0.430524
vn -0.799835 0.468973 0.374604
vn -0.799835 0.468973 0.374604
vn -0.771146 -0.452156 0.448206
vn -0.771146 -0.452156 0.448206
vn 0.000000 -0.830966 0.556323
vn 0.000000 1.000000 -0.000003
vn 0.000000 1.000000 -0.000003
vn 0.000000 1.000000 -0.000003
vn 0.000000 1.000000 -0.000003
vn -0.000002 1.000000 -0.000001
vn -0.000002 1.000000 -0.000001
vn -0.000002 1.000000 -0.000001
vn -0.000002 1.000000 -0.000001
vn 0.000000 1.000000 -0.000004
vn 0.000000 1.000000 -0.000004
vn 0.000000 1.000000 -0.000004
vn 0.000000 1.000000 -0.000004
vn 0.000000 1.000000 -0.000003
vn 0.000000 1.000000 -0.000003
vn 0.000000 1.000000 -0.000003
vn 0.000000 1.000000 -0.000003
vn 0.000000 1.000000 -0.000004
vn 0.000000 1.000000 -0.000004
vn 0.000000 1.000000 -0.000004
vn 0.000000 1.000000 -0.000004
vn 0.000002 1.000000 -0.000001
vn 0.000002 1.000000 -0.000001
vn 0.000002 1.000000 -0.000001
vn 0.000002 1.000000 -0.000001
vn 0.000000 0.908268 0.418389
vn 0.000000 0.908268 0.418389
vn 0.135522 0.603362 0.785867
vn 0.000000 0.763974 0.645247
vn 1.000000 0.000000 0.000000
vn 1.000000 0.000000 0.000000
vn 1.000000 0.000000 0.000000
vn 1.000000 0.000000 0.000000
vn 0.000000 0.834271 -0.551355
vn 0.000000 0.834271 -0.551355
vn 0.000000 0.636508 -0.771270
vn 0.150319 0.466473 -0.871669
vn 0.000000 0.908268 0.418389
vn -0.135522 0.603362 0.785868
vn 0.000000 0.834271 -0.551355
vn -0.150319 0.466473 -0.871669
vn -1.000000 -0.000000 0.000000
vn -1.000000 -0.000000 0.000000
vn -1.000000 -0.000000 0.000000
vn -1.000000 -0.000000 0.000000
vn 0.257794 -0.000004 0.966200
vn 0.000000 -0.000003 1.000000
vn 1.000000 0.000000 0.000000
vn 1.000000 0.000000 0.000000
vn 1.000000 0.000000 0.000000
vn 1.000000 0.000000 0.000000
vn 0.000000 0.000003 -1.000000
vn 0.257795 0.000002 -0.966200
vn -0.257794 -0.000004 0.966200
vn -0.257795 0.000002 -0.966200
vn -1.000000 0.000000 0.000000
vn -1.000000 0.000000 0.000000
vn -1.000000 0.000000 0.000000
vn -1.000000 0.000000 0.000000
vn -0.000000 -1.000000 -0.000000
vn -0.000000 -1.000000 -0.000000
vn -0.000000 -1.000000 -0.000000
vn -0.000000 -1.000000 -0.000000
vn 0.440408 0.000001 -0.897798
vn 0.440408 0.000001 -0.897797
vn -0.000000 1.000000 0.000000
vn -0.000000 1.000000 0.000000
vn 0.440407 -0.000005 0.897798
vn 0.440407 -0.000005 0.897798
vn 0.000000 -1.000000 -0.000000
vn 0.000000 -1.000000 -0.000000
vn 0.000000 -1.000000 -0.000000
vn 0.000000 -1.000000 -0.000000
vn -0.440407 -0.000005 0.897798
vn -0.440407 -0.000005 0.897798
vn 0.000000 1.000000 0.000000
vn 0.000000 1.000000 0.000000
vn -0.440408 0.000002 -0.897798
vn -0.440408 0.000002 -0.897798
vn 0.000000 -0.000015 1.000000
vn 0.000000 -0.000015 1.000000
vn 0.000000 -0.000016 1.000000
vn 0.000000 -0.000016 1.000000
vn 0.000000 -0.000016 1.000000
vn 0.000000 -0.000016 1.000000
vn 0.000000 -0.000016 1.000000
vn 0.000000 -0.000016 1.000000
vn 0.000000 -0.000011 1.000000
vn 0.000000 -0.000011 1.000000
vn 0.000000 -0.000011 1.000000
vn 0.000000 -0.000011 1.000000
vn -0.000002 -0.000015 1.000000
vn -0.000002 -0.000015 1.000000
vn -0.000002 -0.000015 1.000000
vn -0.000002 -0.000015 1.000000
vn 0.000000 -0.000011 1.000000
vn 0.000000 -0.000011 1.000000
vn 0.000000 -0.000011 1.000000
vn 0.000000 -0.000011 1.000000
vn 0.000002 -0.000015 1.000000
vn 0.000002 -0.000015 1.000000
vn 0.000002 -0.000015 1.000000
vn 0.000002 -0.000015 1.000000
vn 0.000000 -1.000000 -0.000015
vn 0.000000 -1.000000 -0.000015
vn 0.000000 -1.000000 -0.000015
vn 0.000000 -1.000000 -0.000015
vn 1.000000 0.000000 0.000000
vn 1.000000 0.000000 0.000000
vn 1.000000 0.000000 0.000000
vn 1.000000 0.000000 0.000000
vn 0.000000 1.000000 0.000015
vn 0.000000 1.000000 0.000015
vn 0.000000 1.000000 0.000015
vn 0.000000 1.000000 0.000015
vn -0.680526 0.719858 0.136703
vn -0.680526 0.719858 0.136703
vn -0.680526 0.719858 0.136703
vn -0.680526 0.719858 0.136703
s 1
g pCube8
usemtl initialShadingGroup
f 49/12/1 50/54/2 51/55/3 52/56/4
f 53/58/5 49/12/1 52/56/4 54/57/6
f 55/60/7 49/12/1 53/58/5 56/59/8
f 57/61/9 50/54/2 49/12/1 55/60/7
s 2
f 78/114/10 79/115/11 80/116/12 81/117/13
s 3
f 2/2/14 5/7/15 11/16/16 10/15/17
s 4
f 5/7/18 4/4/19 13/17/20 11/16/21
s 5
f 4/4/22 7/11/23 12/18/24 13/17/25
f 7/11/23 3/3/26 15/19/27 12/18/28
s 7
f 3/3/29 6/10/30 14/20/31 15/19/32
s 8
f 82/118/33 78/114/34 81/117/35 83/119/36
s 9
f 6/10/37 1/1/38 16/21/39 14/20/40
s off
f 9/14/41 10/15/42 18/23/43 17/22/44
f 10/15/45 11/16/46 19/24/47 18/23/48
f 11/16/49 13/17/50 21/25/51 19/24/52
f 13/17/53 12/18/54 20/26/55 21/25/56
f 12/18/57 15/19/58 23/27/59 20/26/60
f 15/19/61 14/20/62 22/28/63 23/27/64
f 16/21/65 9/14/66 17/22/67 24/29/68
f 14/20/69 16/21/70 24/29/71 22/28/72
s 10
f 17/22/73 18/23/74 26/31/75 25/30/76
s off
f 18/23/77 19/24/78 27/32/79 26/31/80
f 19/24/81 21/25/82 29/33/83 27/32/84
s 11
f 21/25/85 20/26/86 28/34/87 29/33/88
f 20/26/86 23/27/89 31/35/90 28/34/87
s off
f 23/27/91 22/28/92 30/36/93 31/35/94
s 10
f 24/29/95 17/22/73 25/30/76 32/37/96
s off
f 22/28/97 24/29/98 32/37/99 30/36/100
s 12
f 25/30/101 26/31/102 34/39/103 33/38/104
s 13
f 26/31/105 27/32/106 35/40/107 34/39/108
s 14
f 27/32/109 29/33/110 37/41/111 35/40/112
s 15
f 29/33/113 28/34/114 36/42/115 37/41/116
f 28/34/117 31/35/118 39/43/119 36/42/115
s 17
f 31/35/120 30/36/121 38/44/122 39/43/123
s 12
f 32/37/124 25/30/125 33/38/104 40/45/126
s 19
f 30/36/127 32/37/128 40/45/129 38/44/130
s 12
f 33/38/104 34/39/103 42/47/131 41/46/132
s 13
f 34/39/108 35/40/107 43/48/133 42/47/134
s 14
f 35/40/112 37/41/111 45/49/135 43/48/136
s 15
f 37/41/116 36/42/115 44/50/137 45/49/138
f 36/42/115 39/43/119 47/51/139 44/50/137
s 17
f 39/43/123 38/44/122 46/52/140 47/51/141
s 12
f 40/45/126 33/38/104 41/46/132 48/53/142
s 19
f 38/44/130 40/45/129 48/53/143 46/52/144
s 20
f 58/94/145 59/95/146 60/96/147 92/128/148
s 12
f 41/62/132 42/63/131 51/64/149 50/65/150
s 13
f 42/66/134 43/67/133 52/68/151 51/69/152
s 14
f 43/70/136 45/71/135 54/72/153 52/73/154
s 15
f 45/74/138 44/75/137 53/76/155 54/77/156
f 44/78/137 47/79/139 56/80/157 53/81/155
s 17
f 47/82/141 46/83/140 55/84/158 56/85/159
s 12
f 48/86/142 41/87/132 50/88/150 57/89/160
s 19
f 46/90/144 48/91/143 57/92/161 55/93/162
s 5
f 7/11/23 4/5/22 59/95/163 58/94/164
s 4
f 4/5/19 5/8/18 60/96/165 59/95/166
s 3
f 5/8/15 2/2/14 61/97/167 60/96/168
s 21
f 2/2/169 8/13/170 62/98/171 61/97/172
f 8/13/170 1/6/173 63/99/174 62/98/171
s 9
f 1/6/38 6/9/37 64/100/175 63/99/176
s 7
f 6/9/30 3/3/29 65/101/177 64/100/178
s 5
f 3/3/26 7/11/23 58/94/164 65/101/179
s off
f 8/13/180 2/2/181 67/103/182 66/102/183
f 2/2/184 10/15/185 68/104/186 67/103/187
f 10/15/188 9/14/189 69/105/190 68/104/191
f 1/1/192 8/13/193 66/102/194 70/106/195
f 9/14/196 16/21/197 71/107/198 69/105/199
f 16/21/200 1/1/201 70/106/202 71/107/203
s 22
f 66/102/204 67/103/205 73/109/206 72/108/207
s off
f 67/103/208 68/104/209 74/110/210 73/109/211
s 23
f 68/104/212 69/105/213 75/111/214 74/110/215
s 22
f 70/106/216 66/102/204 72/108/207 76/112/217
s 23
f 69/105/213 71/107/218 77/113/219 75/111/214
s off
f 71/107/220 70/106/221 76/112/222 77/113/223
s 22
f 72/108/207 73/109/206 79/115/224 78/114/225
s off
f 84/120/226 85/121/227 86/122/228 87/123/229
s 23
f 74/110/215 75/111/214 81/117/230 80/116/231
s 22
f 76/112/217 72/108/207 78/114/225 82/118/232
s 23
f 75/111/214 77/113/219 83/119/233 81/117/230
s off
f 89/124/234 88/125/235 90/126/236 91/127/237
f 73/109/238 74/110/239 85/121/240 84/120/241
s 23
f 74/110/215 80/116/231 86/122/242 85/121/243
s 2
f 80/116/12 79/115/11 87/123/244 86/122/245
s 22
f 79/115/224 73/109/206 84/120/246 87/123/247
s off
f 77/113/248 76/112/249 88/125/250 89/124/251
s 22
f 76/112/217 82/118/232 90/126/252 88/125/253
s 8
f 82/118/33 83/119/36 91/127/254 90/126/255
s 23
f 83/119/233 77/113/219 89/124/256 91/127/257
s 20
f 62/98/258 92/128/148 60/96/147 61/97/259
s off
f 98/133/260 97/134/261 99/135/262 100/136/263
s 20
f 58/94/145 92/128/148 64/100/264 65/101/265
s off
f 64/100/266 92/128/267 93/130/268 94/129/269
f 92/128/270 62/98/271 95/131/272 93/130/273
f 62/98/274 63/99/275 96/132/276 95/131/277
f 63/99/278 64/100/279 94/129/280 96/132/281
f 94/129/282 93/130/283 97/134/284 98/133/285
f 93/130/286 95/131/287 99/135/288 97/134/289
f 95/131/290 96/132/291 100/136/292 99/135/293
f 96/132/294 94/129/295 98/133/296 100/136/297
